# xmcd CD database file
#
# Track frame offsets:
#	150
#	23869
#	50587
#	80180
#	112515
#	141736
#	168305
#	185544
#	212877
#	236284
#	270708
#	294475
#
# Disc length: 4210 seconds
#
# Revision: 2
# Processed by: cddbd v1.5.1PL2 Copyright (c) Steve Scherf et al.
# Submitted via: CDex 1.50
#
DISCID=af10700c
DTITLE=Amon Tobin - Permutation
DYEAR=1998
DGENRE=Electronic
TTITLE0=Like Regular Chickens
TTITLE1=Bridge
TTITLE2=Reanimator
TTITLE3=Sordid
TTITLE4=Nightlife
TTITLE5=Escape
TTITLE6=Switch
TTITLE7=People Like Frank
TTITLE8=Sultan Drops
TTITLE9=Fast Eddie
TTITLE10=Toys
TTITLE11=Nova
EXTD=YEAR: 1998
EXTT0=
EXTT1=
EXTT2=
EXTT3=
EXTT4=
EXTT5=
EXTT6=
EXTT7=
EXTT8=
EXTT9=
EXTT10=
EXTT11=
PLAYORDER=
